<svg xmlns="http://www.w3.org/2000/svg" xml:space="preserve" width="1000px" height="292.086px" x="0px" y="0px" viewBox="0 0 1000 292.086"><g clip-rule="evenodd"><path fill-rule="evenodd" d="M205.947 220.186V42.92h-65.309V3.265h225.248V42.92h-67.978v177.266zM558.813 89.234v130.952h-52.654V3.265h64.65c17.987 0 31.318 6.333 39.982 18.991l11.663 19.994 12.661-19.994c8.325-12.658 21.657-18.991 39.982-18.991h64.307v216.921H686.76V89.234l-52.312 84.301c-7.998 12.993-15.997 12.993-23.99.327l-51.645-84.628zM855.699 143.878c.328 22.99 13.659 35.321 39.313 36.984h94.3v39.323H839.037c-34.656 0-57.311-12.661-67.306-38.32-4.334-10.665-7.001-23.32-7.666-37.987v-41.651c.998-18.996 4.329-35.653 9.329-49.312 12.661-32.99 34.65-49.65 65.97-49.65H989.312V42.92H897.679c-23.658 0-37.649 11.325-41.979 33.65v17.663h133.613v35.648H855.699v13.997zM389.544 220.186V3.265h91.633v216.921zM13.684 215.513V113.225h19.659v102.288H13.684zm9.332-120.946c-7.33 0-12.328-5.666-12.328-11.996 0-6.668 5.329-11.995 12.658-11.995 7.666 0 12.663 5.327 12.663 11.995 0 6.33-4.997 11.996-12.663 11.996h-.33z"/><path fill="none" stroke="#000" d="M13.684 215.513V113.225h19.659v102.288H13.684zm9.332-120.946c-7.33 0-12.328-5.666-12.328-11.996 0-6.668 5.329-11.995 12.658-11.995 7.666 0 12.663 5.327 12.663 11.995 0 6.33-4.997 11.996-12.663 11.996h-.33z"/><path fill-rule="evenodd" d="M117.313 111.224c1.663-.333 3.335-.333 5.332-.333 26.322 0 45.981 20.992 45.981 51.984 0 36.651-23.988 54.977-49.315 54.977h-1.998v-14.661c19.659-.665 31.319-16.663 31.319-39.318 0-20.324-10.991-37.987-31.319-37.987v-14.662zM66 146.544c0-12.993-.334-23.658-1.003-33.319h17.662l1.333 17.66h.334c6.997-11.33 17.992-18.331 32.988-19.661v14.661h-.669c-13.323 0-25.987 8.664-29.986 22.661-.33 2.666-.999 5.329-.999 7.66v17.655c0 2.672.335 5.338.999 7.666 3.332 12.999 15.325 21.663 29.322 21.663h1.333v14.661c-13.663-.665-24.993-6.33-31.319-15.992h-.335v55.305H66v-110.62z"/><path fill="none" stroke="#000" d="M66 146.544c0-12.993-.334-23.658-1.003-33.319h17.662l1.333 17.66h.334c7.661-12.663 20.658-19.994 38.32-19.994 26.322 0 45.981 20.992 45.981 51.984 0 36.651-23.988 54.977-49.315 54.977-14.328 0-26.656-5.997-33.317-15.992h-.335v55.305H66V146.544zm19.659 27.318c0 2.672.335 5.338.999 7.666 3.332 12.999 15.325 21.663 29.322 21.663 20.658 0 32.652-15.992 32.652-39.318 0-20.659-10.991-37.987-31.988-37.987-13.323 0-25.987 8.664-29.986 22.661-.33 2.666-.999 5.329-.999 7.66v17.655z"/><path fill="#231815" fill-rule="evenodd" d="M146.969 250.169h-11.66v-3.659h27.985v3.659h-11.326v28.991h-4.999zM166.963 244.842h4.999v14.661h.33c.664-1.336 2.002-2.339 3.33-2.998 1.668-1.004 3.335-1.336 4.999-1.336 3.67 0 9.663 1.995 9.663 9.994v13.996h-4.999v-13.325c0-4.003-1.663-6.996-6.328-6.996-3 0-5.667 1.996-6.666 4.329-.33.333-.33.998-.33 1.996v13.996h-4.999v-34.317zM208.279 276.167c.665.327 1.329.327 1.999.327 3.664 0 5.667-.665 7.665-1.33l.668 2.998c-1.671.666-4.668 1.664-9.002 1.664h-1.329v-3.659h-.001zm0-20.998h.665c8.998 0 11.331 6.662 11.331 10.997 0 .998 0 1.663-.335 2.001h-11.66v-3.004h7.331c0-2.666-1.333-6.996-6.996-6.996h-.335v-2.998zm-7.33 12.998c.335 4.995 3.332 7.661 7.331 7.999v3.659c-7.331-.666-11.994-5.333-11.994-11.996 0-6.657 4.664-12.328 11.994-12.66v2.998c-4.663.338-6.666 3.997-6.996 6.996h6.996v3.004h-7.331zM242.6 279.16l-9.662-32.649h5.333l4.33 16.657a97.981 97.981 0 0 1 3.001 11.325 96.098 96.098 0 0 1 2.996-11.325l4.999-16.657h5.329l4.333 16.657c1.333 3.997 2.333 7.666 2.662 11.325h.334c.669-3.659 1.669-7.328 3.002-11.325l4.999-16.657h4.999l-10.667 32.649h-5.329l-4.668-16.995c-1.329-3.997-1.997-7.328-2.333-10.659h-.33c-.664 3.331-1.333 6.33-2.996 10.659l-5.333 16.995H242.6zM292.91 255.169h.334c8 0 12.997 5 12.997 11.995 0 8.664-6.666 12.661-13.331 12.661v-3.332c4.668 0 8.334-3.664 8.334-8.996 0-3.997-2.333-8.992-8-8.992h-.334v-3.336zm0 24.657c-7.331 0-12.989-4.662-12.989-11.996 0-7.999 5.658-12.66 12.989-12.66v3.336c-5.659 0-7.995 4.662-7.995 8.992 0 5.332 3.33 8.996 7.995 8.996v3.332zM312.569 263.167v-7.328h4.334v4.662h.335c.998-3.337 4.332-5.332 7.328-5.332.666 0 1 0 1.668.332v4.002c-.668-.338-1.338-.338-2.001-.338-3.332 0-5.998 2.334-6.666 5.665V279.159h-5v-15.992zM331.235 244.842h4.997v34.317h-4.997zM367.887 244.842v34.317h-4.335l-.33-3.996c-1.338 2.328-4.334 4.329-7.999 4.662v-3.332c3.331 0 6.327-2.001 7.331-5.327.333-.333.333-1.003.333-1.674v-3.991c0-.671 0-1.336-.333-2.001-.67-2.666-3.337-4.995-6.996-4.995h-.335v-3.336c3.664.332 6.327 1.995 7.331 3.669h.333v-13.996h5zm-12.663 34.984h-1.333c-6.333 0-11.666-4.662-11.666-11.996 0-7.999 5.668-12.66 12.331-12.66h.668v3.336c-5 .333-7.999 3.992-7.999 8.992 0 4.999 2.666 8.669 7.999 8.996v3.332zM399.874 246.51c3.326 0 5.66.993 7.331 1.996 1.998 1.33 3.326 3.331 3.326 5.997 0 2.999-2.661 5.998-6.325 6.996v.332c3.329.666 7.664 3.332 7.664 7.999 0 2.999-1.339 4.995-3.334 6.663-1.999 1.668-4.665 2.666-8.662 2.999v-3.326c3.662-.671 6.999-2.339 6.999-6.336 0-3.664-3.002-5.332-6.999-5.992v-3.669c3.662-.666 5.66-2.667 5.66-5.333 0-2.999-2.333-4.667-5.66-5v-3.326zm-11.999.327c2.331-.327 5.663-.665 9-.665.998 0 1.995 0 2.999.338v3.326c-1.003-.333-1.671-.333-2.666-.333-2.331 0-3.669 0-4.332.333v10.665h4.332c.995 0 1.998 0 2.666-.332v3.669c-1.003-.338-2.001-.338-2.999-.338h-4v12.666H399.874v3.326h-4.332c-3.332 0-5.998 0-7.666-.333v-32.322zM428.529 276.167c.667.327 1.333.327 1.995.327 3.67 0 5.668-.665 7.667-1.33l.668 2.998c-1.668.666-4.665 1.664-8.997 1.664h-1.333v-3.659zm0-20.998h.667c8.994 0 11.325 6.662 11.325 10.997 0 .998 0 1.663-.332 2.001h-11.66v-3.004h7.328c0-2.666-1.333-6.996-6.996-6.996h-.333v-2.998zm-7.331 12.998c.333 4.995 3.329 7.661 7.331 7.999v3.659c-7.331-.666-11.996-5.333-11.996-11.996 0-6.657 4.665-12.328 11.996-12.66v2.998c-4.665.338-6.663 3.997-6.999 6.996h6.999v3.004h-7.331zM445.854 274.826c1.663 1.003 4.329 1.668 6.663 1.668 3.669 0 5.334-1.33 5.334-3.331 0-1.996-1.665-3.332-5.001-4.33-4.997-1.668-7.328-4.002-7.328-6.668 0-3.997 3.664-6.995 9.327-6.995 2.665 0 5.331.67 6.667 1.668l-1.336 2.993c-.998-.665-2.999-1.325-5.331-1.325-2.996 0-4.665 1.325-4.665 2.994 0 2.001 1.668 2.999 5.335 4.002 4.661 1.663 6.994 3.664 6.994 7.328 0 3.997-3.664 6.996-9.996 6.996-2.996 0-5.663-.666-7.666-1.664l1.003-3.336zM474.841 250.169v5.67h6.996v3.326h-6.996v12.661c0 2.666 1.003 4.34 3.669 4.34 1.331 0 2.001 0 2.994-.338v3.331c-.992.333-2.333.666-4.329.666-2.334 0-3.997-.666-5.333-1.664-1.331-1.335-1.996-3.669-1.996-6.335v-12.661h-3.997v-3.326h3.997v-4.334l4.995-1.336zM499.502 279.16v-32.65h5.332l11.995 16.657c2.999 3.664 4.994 7.328 6.995 10.66-.338-4.662-.67-8.326-.67-13.658V246.51h4.667v32.649h-5l-11.99-16.662c-2.666-3.332-5-7.328-6.999-10.66.331 4.002.331 7.993.331 13.326v13.996h-4.661zM546.146 276.167c.671.327 1.336.327 2.002.327 3.669 0 5.997-.665 7.66-1.33l1.003 2.998c-2.001.666-4.994 1.664-9.329 1.664h-1.336v-3.659zm0-20.998h.998c8.664 0 10.998 6.662 10.998 10.997v2.001h-11.996v-3.004h7.334c0-2.666-1.336-6.996-6.663-6.996h-.671v-2.998zm-6.995 12.998c0 4.995 2.999 7.661 6.995 7.999v3.659c-7.328-.666-11.995-5.333-11.995-11.996 0-6.657 4.667-12.328 11.995-12.66v2.998c-4.661.338-6.662 3.997-6.995 6.996h6.995v3.004h-6.995zM570.138 250.169v5.67h7.328v3.326h-7.328v12.661c0 2.666 1.003 4.34 3.997 4.34 1.336 0 2.006 0 2.666-.338l.332 3.331c-.992.333-2.66.666-4.329.666-2.333 0-4.329-.666-5.332-1.664-1.331-1.335-2.001-3.669-2.001-6.335v-12.661h-4.329v-3.326h4.329v-4.334l4.667-1.336zM585.132 255.839l3.664 11.99c.665 2.334 1.336 5 2.001 7.334.666-2.334 1.669-5 2.672-7.334l4.329-11.99h3.991l4.335 11.658c.998 2.666 1.669 5.332 2.334 7.666h.332c.333-2.334.998-4.668 2.001-7.666l3.997-11.658h4.667l-8.664 23.32h-4.667l-3.997-10.992c-1.003-2.666-1.662-5-2.333-7.998h-.333c-.665 2.998-1.33 5.332-2.333 7.998l-4.33 10.992h-4.667l-7.999-23.32h5zM635.115 255.169h.332c7.666 0 12.993 5 12.993 11.995 0 8.664-6.663 12.661-13.325 12.661v-3.332c4.667 0 8.325-3.664 8.325-8.996 0-3.997-2.333-8.992-7.993-8.992h-.332v-3.336zm0 24.657c-7.328 0-12.994-4.662-12.994-11.996 0-7.999 5.666-12.66 12.994-12.66v3.336c-5.666 0-7.999 4.662-7.999 8.992 0 5.332 3.331 8.996 7.999 8.996v3.332zM654.776 263.167c0-2.998 0-5.332-.333-7.328h4.33l.332 4.662h.333c.998-3.337 3.996-5.332 7.333-5.332.666 0 .993 0 1.325.332v4.002c-.332-.338-.998-.338-1.663-.338-3.331 0-5.997 2.334-6.663 5.665V279.159h-4.994v-15.992zM678.43 266.5c.67-.665 1.662-2.001 2.333-2.661l7.999-7.999h5.992l-10.654 9.662 11.995 13.658h-6.003l-9.329-11.33-2.333 2.666v8.664h-4.995v-34.317h4.995V266.5zM731.405 263.838h-14.661v11.991h16.335v3.331h-21.324v-32.65h20.321v3.659h-15.332v10.332h14.661zM757.402 275.829c-1.336 2.001-4.002 3.664-7.666 3.997v-3.332h.338c2.994 0 5.992-1.668 6.996-4.667.332-.66.332-1.331.332-1.996v-6.33a7.761 7.761 0 0 0-7.328-4.995h-.338v-3.336c3.997.332 6.663 1.995 7.994 3.996l.338-3.326h4.661c-.327 1.996-.327 3.991-.327 6.325v26.657h-5v-12.993zm-7.666 3.997h-1.33c-6.336 0-11.33-4.662-11.33-11.996 0-8.664 6.33-12.66 12.328-12.66h.332v3.336c-5 .333-7.666 3.992-7.666 9.324 0 4.329 2.334 8.337 7.666 8.664v3.332zM793.384 272.83v6.33h-4.329l-.333-3.664c-1.33 1.996-3.997 4.33-8.991 4.33-4.335 0-9.334-1.996-9.334-10.333V255.84h4.999v12.993c0 4.33 1.669 7.334 5.998 7.334 3.331 0 5.665-2.001 6.657-3.67 0-.67.338-1.663.338-2.333V255.84h4.995v16.99zM801.388 279.16v-23.32h4.994v23.32h-4.994zm2.328-27.655a2.987 2.987 0 0 1-2.999-2.999c0-1.331 1.331-2.667 3.337-2.667 1.663 0 2.994 1.336 2.994 2.667a2.986 2.986 0 0 1-2.994 2.999h-.338zM827.374 255.169h1.336c6.663 0 11.657 5 11.657 11.995 0 8.331-5.997 12.661-12.328 12.661h-.665v-3.332c4.995-.327 7.999-3.997 7.999-8.996 0-4.662-2.666-8.659-7.999-8.992v-3.336zm-12.666 8.331c0-2.999 0-5.665-.327-7.661h4.329l.333 3.991h.332c1.669-2.666 4.335-4.329 7.999-4.661v3.336c-3.331 0-6.663 1.996-7.666 5.333v7.661c1.003 2.993 4.002 4.994 7.328 4.994h.338v3.332c-3.331 0-5.992-1.325-7.666-3.659v12.655h-5V263.5zM846.697 262.165c0-2.661-.332-4.329-.332-6.325h4.335l.332 3.664c1.669-2.339 3.997-4.334 8.664-4.334 3.664 0 6.33 1.995 7.661 4.661 1.003-1.325 2.001-2.328 3.004-2.993 1.663-.998 3.326-1.668 5.992-1.668 3.67 0 8.997 1.995 8.997 10.332v13.658h-4.662v-13.325c0-4.335-2.001-6.996-5.998-6.996-3.004 0-5 1.663-6.003 3.659 0 .67-.327 1.341-.327 2.333v14.329h-4.673v-13.996c0-3.664-1.995-6.325-5.654-6.325-3.004 0-5.332 1.996-6.336 3.997-.332.665-.332 1.663-.332 2.328v13.996h-4.668v-16.995zM903.344 276.167c.67.327 1.336.327 1.995.327 3.67 0 5.671-.665 7.666-1.33l1.004 2.998c-1.996.666-5 1.664-9.329 1.664h-1.336v-3.659zm0-20.998h1.003c8.658 0 10.992 6.662 10.992 10.997v2.001h-11.995v-3.004h7.328c0-2.666-1.325-6.996-6.996-6.996h-.332v-2.998zm-6.996 12.998c0 4.995 2.999 7.661 6.996 7.999v3.659c-7.334-.666-11.996-5.333-11.996-11.996 0-6.657 4.662-12.328 11.996-12.66v2.998c-4.662.338-6.663 3.997-6.996 6.996h6.996v3.004h-6.996zM921.337 262.165v-6.325h4.334l.333 3.664c1.33-2.001 4.662-4.334 8.991-4.334 3.669 0 9.662 1.995 9.662 9.994v13.996h-4.995v-13.325c0-4.003-1.663-6.996-6.33-6.996-2.999 0-5.665 1.996-6.657 4.329 0 .333-.339 1.331-.339 1.996v13.996h-4.999v-16.995zM958.326 250.169v5.67h6.995v3.326h-6.995v12.661c0 2.666.992 4.34 3.658 4.34 1.342 0 2.334 0 3.005-.338l.332 3.331c-1.003.333-2.666.666-4.661.666-2.334 0-4.002-.666-5.333-1.664-1.336-1.335-1.663-3.669-1.663-6.335v-12.661h-4.335v-3.326h4.335v-4.334l4.662-1.336zM970.321 274.826c1.663 1.003 3.991 1.668 6.663 1.668 3.332 0 4.994-1.33 4.994-3.331 0-1.996-1.324-3.332-4.994-4.33-4.667-1.668-7.001-4.002-7.001-6.668 0-3.997 3.331-6.995 9.329-6.995 2.666 0 5 .67 6.668 1.668l-1.335 2.993c-.998-.665-2.999-1.325-5.665-1.325-2.661 0-4.33 1.325-4.33 2.994 0 2.001 1.669 2.999 5 4.002 4.662 1.663 7.328 3.664 7.328 7.328 0 3.997-3.996 6.996-10.332 6.996-2.993 0-5.66-.666-7.328-1.664l1.003-3.336z"/></g></svg>